<svg width="15" height="14" viewBox="0 0 15 14" fill="none" xmlns="http://www.w3.org/2000/svg">
    <path d="M4.5 1.54946L5.01885 0.694595L4.5 0.379687L3.98115 0.694596L4.5 1.54946ZM7.5 3.37027L6.98115 4.22514L7.5 4.54004L8.01885 4.22514L7.5 3.37027ZM1.5 3.37027L0.981151 2.5154L0.5 2.80743V3.37027H1.5ZM1.5 7.272H0.5V7.73353L0.851203 8.03297L1.5 7.272ZM7.5 12.3876L6.8512 13.1486L7.5 13.7017L8.1488 13.1486L7.5 12.3876ZM13.5 7.272L14.1488 8.03297L14.5 7.73353V7.272H13.5ZM13.5 3.37027H14.5V2.80743L14.0188 2.5154L13.5 3.37027ZM10.5 1.54946L11.0189 0.694596L10.5 0.379687L9.98115 0.694595L10.5 1.54946ZM3.98115 2.40433L6.98115 4.22514L8.01885 2.5154L5.01885 0.694595L3.98115 2.40433ZM2.01885 4.22514L5.01885 2.40433L3.98115 0.694596L0.981151 2.5154L2.01885 4.22514ZM2.5 7.272V3.37027H0.5V7.272H2.5ZM8.1488 11.6266L2.1488 6.51104L0.851203 8.03297L6.8512 13.1486L8.1488 11.6266ZM8.1488 13.1486L14.1488 8.03297L12.8512 6.51104L6.8512 11.6266L8.1488 13.1486ZM14.5 7.272V3.37027H12.5V7.272H14.5ZM14.0188 2.5154L11.0189 0.694596L9.98115 2.40433L12.9812 4.22514L14.0188 2.5154ZM9.98115 0.694595L6.98115 2.5154L8.01885 4.22514L11.0189 2.40433L9.98115 0.694595Z"
          fill="white"/>
</svg>
